<svg width="512" height="512" viewBox="0 0 512 512" fill="none" xmlns="http://www.w3.org/2000/svg">
<rect width="512" height="512" fill="white"/>
<path d="M347.095 125.927C361.934 150.187 372.533 163.967 379.482 170.209C386.43 176.45 396.794 175.508 396.676 166.558C396.558 158.314 393.261 146.419 391.259 141.944C368.765 95.1887 322.481 61.9775 268.188 58.0911C305.993 67.7482 332.256 101.666 347.095 125.927Z" fill="url(#paint0_linear_18_44)"/>
<path d="M238.746 81.4097C254.763 95.1889 270.309 92.1268 311.057 89.3003C339.087 87.416 349.686 90.8314 353.572 93.1868C327.663 71.0459 293.98 57.6199 257.118 57.6199C251.779 57.6199 246.48 57.8949 241.219 58.4445C234.035 59.6222 223.554 68.2195 238.746 81.4097Z" fill="url(#paint1_linear_18_44)"/>
<path d="M203.297 344.745C177.27 334.381 158.78 308.942 158.78 279.264C158.78 270.196 160.429 261.598 163.608 253.708C165.022 249.233 174.443 222.617 200.353 175.273C213.543 149.481 225.556 123.454 227.676 104.728C228.029 103.079 228.029 97.0732 227.911 95.7777C227.44 91.538 226.262 87.7694 223.907 84.9429C219.078 77.17 210.363 71.8702 200.471 71.8702C195.877 71.8702 191.638 73.0481 187.869 74.9324C187.791 74.9324 187.751 74.893 187.751 74.8145C140.643 99.7819 108.492 149.246 108.492 206.247C108.492 269.843 148.416 324.017 204.475 345.333C204.082 345.098 203.69 344.902 203.297 344.745Z" fill="url(#paint2_linear_18_44)"/>
<path d="M404.096 227.563C404.253 226.935 404.41 226.307 404.567 225.679C404.802 223.637 404.999 221.596 405.156 219.554C405.156 219.397 405.156 219.201 405.156 218.966C405.156 200.476 390.199 185.519 371.827 185.519C370.178 185.519 368.568 185.637 366.998 185.872C359.814 186.579 340.382 189.405 300.576 202.125C263.831 214.019 229.795 222.263 202.119 221.085C201.884 221.085 201.648 221.085 201.413 221.085C162.666 221.085 131.104 189.523 131.104 150.777C131.104 134.642 136.521 119.803 145.589 108.026C122.506 134.171 108.492 168.56 108.492 206.247C108.492 288.333 175.032 354.873 257.118 354.873C332.02 354.873 393.968 299.521 404.214 227.563H404.096Z" fill="url(#paint3_linear_18_44)"/>
<path d="M72.6894 392.795C72.3361 391.499 73.0427 390.675 74.2204 390.675H82.3466C83.0532 390.675 83.7599 391.264 83.9954 391.853L93.1815 427.184H93.5348L107.667 390.675C107.785 390.204 108.256 389.733 109.081 389.733H110.729C111.554 389.733 112.025 390.204 112.26 390.675L126.393 427.184H126.746L135.814 391.853C135.932 391.264 136.639 390.675 137.345 390.675H145.472C146.767 390.675 147.474 391.499 147.12 392.795L130.397 452.269C130.161 452.976 129.455 453.447 128.748 453.447H127.335C126.511 453.447 126.039 453.093 125.804 452.505L110.023 412.463H109.552L93.8881 452.505C93.6526 453.093 93.2993 453.447 92.3571 453.447H90.9438C90.2372 453.447 89.5306 452.976 89.4128 452.269L72.6894 392.795Z" fill="#19D9FF"/>
<path d="M198.939 413.64C198.939 412.463 199.881 411.756 200.823 411.756H204.121C205.063 411.756 205.534 412.109 205.887 413.051L207.418 417.056C208.832 414.936 212.6 410.814 218.96 410.814C223.789 410.814 227.793 412.109 226.615 414.818L224.024 420.824C223.553 421.767 222.493 422.12 221.551 421.649C220.609 421.295 219.667 420.942 217.782 420.942C213.307 420.942 210.716 423.769 210.009 425.182V450.62C210.009 452.151 208.949 452.622 207.654 452.622H200.823C199.881 452.622 198.939 451.68 198.939 450.62V413.64Z" fill="#19D9FF"/>
<path d="M233.21 392.559C233.21 391.617 234.153 390.675 235.095 390.675H242.279C243.339 390.675 244.281 391.617 244.281 392.559V427.184L258.296 412.934C259.002 412.345 259.709 411.756 260.887 411.756H269.248C270.897 411.756 271.486 413.523 270.544 414.7L254.291 430.599L271.368 449.678C272.428 450.856 271.839 452.622 270.073 452.622H261.475C260.769 452.622 259.944 452.269 259.709 451.798L244.281 433.426V450.62C244.281 451.68 243.339 452.622 242.279 452.622H235.095C234.153 452.622 233.21 451.68 233.21 450.62V392.559Z" fill="#19D9FF"/>
<path d="M307.406 389.733C316.356 389.733 322.834 392.559 328.84 397.977C329.664 398.683 329.664 399.743 328.958 400.45L323.54 405.985C322.834 406.692 322.009 406.692 321.303 405.985C317.534 402.805 312.588 400.803 307.641 400.803C296.335 400.803 287.856 410.225 287.856 421.413C287.856 432.484 296.453 441.905 307.759 441.905C313.059 441.905 317.534 439.903 321.303 436.841C322.009 436.252 322.951 436.37 323.54 436.841L328.958 442.494C329.664 443.083 329.547 444.261 328.958 444.849C322.834 450.738 315.296 453.447 307.406 453.447C289.622 453.447 275.372 439.432 275.372 421.649C275.372 403.983 289.622 389.733 307.406 389.733Z" fill="#19D9FF"/>
<path d="M339.911 392.324C339.911 391.382 340.617 390.675 341.677 390.675H377.715C378.657 390.675 379.364 391.382 379.364 392.324V399.508C379.364 400.45 378.657 401.274 377.715 401.274H351.452V415.76H373.357C374.182 415.76 375.006 416.584 375.006 417.409V424.828C375.006 425.771 374.182 426.477 373.357 426.477H351.452V442.023H377.715C378.657 442.023 379.364 442.729 379.364 443.672V450.973C379.364 451.798 378.657 452.622 377.715 452.622H341.677C340.617 452.622 339.911 451.798 339.911 450.973V392.324Z" fill="#19D9FF"/>
<path d="M418.346 389.733C427.296 389.733 433.774 392.559 439.78 397.977C440.604 398.683 440.604 399.743 439.898 400.45L434.48 405.985C433.774 406.692 432.949 406.692 432.243 405.985C428.474 402.805 423.528 400.803 418.581 400.803C407.275 400.803 398.796 410.225 398.796 421.413C398.796 432.484 407.393 441.905 418.699 441.905C423.999 441.905 428.474 439.903 432.243 436.841C432.949 436.252 433.891 436.37 434.48 436.841L439.898 442.494C440.604 443.083 440.486 444.261 439.898 444.849C433.774 450.738 426.236 453.447 418.346 453.447C400.68 453.447 386.312 439.432 386.312 421.649C386.312 403.983 400.68 389.733 418.346 389.733Z" fill="#19D9FF"/>
<path fill-rule="evenodd" clip-rule="evenodd" d="M190.577 432.13C190.577 443.907 181.038 453.565 169.143 453.565C157.366 453.565 147.827 443.907 147.827 432.13C147.827 420.353 157.366 410.696 169.143 410.696C181.038 410.696 190.577 420.353 190.577 432.13ZM181.98 432.13C181.98 425.064 176.209 419.293 169.143 419.293C169.065 419.293 168.986 419.333 168.908 419.411C168.829 419.411 168.79 419.411 168.79 419.411C168.711 419.411 168.633 419.411 168.554 419.411C168.476 419.411 168.437 419.411 168.437 419.411C168.358 419.411 168.28 419.411 168.201 419.411C168.201 419.411 168.162 419.411 168.083 419.411C168.005 419.411 167.926 419.411 167.848 419.411C167.848 419.411 167.808 419.411 167.73 419.411C167.651 419.411 167.612 419.411 167.612 419.411C167.534 419.411 167.455 419.45 167.377 419.529C167.377 419.529 167.337 419.529 167.259 419.529C167.18 419.529 167.141 419.529 167.141 419.529C167.063 419.529 166.984 419.529 166.906 419.529C166.906 419.529 166.866 419.529 166.788 419.529C166.709 419.607 166.67 419.647 166.67 419.647C166.591 419.647 166.513 419.647 166.434 419.647C166.356 419.647 166.317 419.647 166.317 419.647C166.238 419.647 166.16 419.686 166.081 419.764C166.081 419.764 166.042 419.764 165.963 419.764C165.963 419.764 165.924 419.764 165.846 419.764C165.767 419.764 165.728 419.804 165.728 419.882C165.649 419.882 165.571 419.882 165.492 419.882C165.492 419.882 165.453 419.882 165.375 419.882C165.296 419.961 165.257 420 165.257 420C165.178 420 165.139 420 165.139 420C165.06 420 164.982 420.039 164.903 420.118C164.903 420.118 164.864 420.118 164.786 420.118C164.707 420.118 164.629 420.157 164.55 420.235C164.472 420.235 164.393 420.275 164.315 420.353C164.315 420.353 164.275 420.353 164.197 420.353C164.118 420.353 164.079 420.392 164.079 420.471C164.001 420.471 163.961 420.471 163.961 420.471C163.883 420.471 163.804 420.51 163.726 420.589C163.726 420.589 163.686 420.589 163.608 420.589C163.608 420.667 163.569 420.706 163.49 420.706C163.412 420.706 163.372 420.706 163.372 420.706C163.294 420.785 163.215 420.824 163.137 420.824C163.137 420.824 163.137 420.863 163.137 420.942C163.058 420.942 162.98 420.981 162.901 421.06C162.901 421.06 162.862 421.06 162.784 421.06C162.784 421.06 162.744 421.099 162.666 421.178C162.587 421.178 162.548 421.178 162.548 421.178C162.469 421.256 162.391 421.295 162.312 421.295C162.312 421.295 162.312 421.335 162.312 421.413C162.234 421.413 162.155 421.452 162.077 421.531C161.998 421.609 161.92 421.649 161.841 421.649C161.763 421.727 161.684 421.806 161.606 421.884C161.527 421.963 161.449 422.002 161.37 422.002C161.37 422.081 161.331 422.12 161.253 422.12C161.253 422.12 161.213 422.159 161.135 422.237C161.135 422.237 161.095 422.237 161.017 422.237C161.017 422.316 160.978 422.394 160.899 422.473C160.899 422.473 160.86 422.473 160.781 422.473C160.781 422.551 160.742 422.63 160.664 422.708C160.585 422.708 160.507 422.748 160.428 422.826C160.35 422.905 160.271 422.983 160.193 423.062C160.036 423.219 159.879 423.376 159.721 423.533C157.719 425.771 156.424 428.833 156.424 432.13V443.318L159.368 440.374C159.447 440.453 159.525 440.531 159.604 440.61C159.682 440.688 159.761 440.767 159.839 440.845C159.918 440.924 159.996 441.002 160.075 441.081C160.153 441.159 160.232 441.238 160.31 441.316C160.703 441.709 161.135 442.062 161.606 442.376C161.606 442.455 161.606 442.494 161.606 442.494C161.684 442.494 161.763 442.533 161.841 442.612C161.92 442.612 161.959 442.612 161.959 442.612C162.038 442.69 162.116 442.769 162.195 442.847C162.273 442.926 162.352 442.965 162.43 442.965C162.43 442.965 162.469 442.965 162.548 442.965C162.626 443.044 162.705 443.122 162.784 443.201C163.098 443.358 163.412 443.515 163.726 443.672C163.804 443.75 163.883 443.79 163.961 443.79C164.04 443.79 164.079 443.79 164.079 443.79C164.158 443.868 164.236 443.907 164.315 443.907C164.315 443.907 164.354 443.947 164.432 444.025C164.432 444.025 164.472 444.025 164.55 444.025C164.629 444.025 164.668 444.064 164.668 444.143C164.746 444.143 164.825 444.143 164.903 444.143C164.982 444.143 165.021 444.182 165.021 444.261C165.1 444.261 165.178 444.261 165.257 444.261C165.257 444.261 165.296 444.3 165.375 444.378C165.453 444.378 165.532 444.378 165.61 444.378C165.767 444.457 165.885 444.496 165.963 444.496C166.12 444.496 166.238 444.535 166.317 444.614C166.317 444.614 166.356 444.614 166.434 444.614C166.513 444.614 166.591 444.614 166.67 444.614C166.67 444.692 166.709 444.732 166.788 444.732C166.866 444.732 166.945 444.732 167.023 444.732C167.023 444.732 167.063 444.732 167.141 444.732C167.22 444.732 167.298 444.732 167.377 444.732C167.377 444.732 167.416 444.771 167.494 444.849C167.573 444.849 167.612 444.849 167.612 444.849C167.691 444.849 167.769 444.849 167.848 444.849C167.926 444.849 167.965 444.849 167.965 444.849C168.044 444.849 168.122 444.849 168.201 444.849C168.201 444.849 168.24 444.849 168.319 444.849C168.397 444.849 168.476 444.849 168.554 444.849C168.633 444.849 168.711 444.849 168.79 444.849C168.79 444.928 168.79 444.967 168.79 444.967C168.947 444.967 169.065 444.967 169.143 444.967C176.209 444.967 181.98 439.196 181.98 432.13Z" fill="#19D9FF"/>
<path d="M165.492 432.13C165.492 432.955 164.786 433.661 163.961 433.661C163.137 433.661 162.43 432.955 162.43 432.13C162.43 431.306 163.137 430.599 163.961 430.599C164.786 430.599 165.492 431.306 165.492 432.13Z" fill="#634CE7"/>
<path d="M170.792 432.13C170.792 432.955 170.085 433.661 169.143 433.661C168.318 433.661 167.612 432.955 167.612 432.13C167.612 431.306 168.318 430.599 169.143 430.599C170.085 430.599 170.792 431.306 170.792 432.13Z" fill="#634CE7"/>
<path d="M175.974 432.13C175.974 432.955 175.267 433.661 174.443 433.661C173.618 433.661 172.912 432.955 172.912 432.13C172.912 431.306 173.618 430.599 174.443 430.599C175.267 430.599 175.974 431.306 175.974 432.13Z" fill="#634CE7"/>
<defs>
<linearGradient id="paint0_linear_18_44" x1="396.676" y1="174.213" x2="268.188" y2="174.213" gradientUnits="userSpaceOnUse">
<stop offset="0.1" stop-color="#634CE7"/>
<stop offset="1" stop-color="#19D9FF"/>
</linearGradient>
<linearGradient id="paint1_linear_18_44" x1="353.572" y1="93.1868" x2="230.973" y2="93.1868" gradientUnits="userSpaceOnUse">
<stop stop-color="#19D9FF"/>
<stop offset="1" stop-color="#634CE7"/>
</linearGradient>
<linearGradient id="paint2_linear_18_44" x1="227.911" y1="345.333" x2="108.492" y2="345.333" gradientUnits="userSpaceOnUse">
<stop stop-color="#634CE7"/>
<stop offset="1" stop-color="#19D9FF"/>
</linearGradient>
<linearGradient id="paint3_linear_18_44" x1="405.156" y1="354.873" x2="108.492" y2="354.873" gradientUnits="userSpaceOnUse">
<stop offset="0.1" stop-color="#634CE7"/>
<stop offset="1" stop-color="#19D9FF"/>
</linearGradient>
</defs>
</svg>
