<svg width="355" height="86" viewBox="0 0 355 86" fill="none" xmlns="http://www.w3.org/2000/svg">
<path d="M69.4003 19.9004C73.7003 26.9004 76.7003 30.8006 78.7003 32.6006C80.7003 34.4006 83.6003 34.2006 83.6003 31.6006C83.6003 29.2006 82.7003 25.8005 82.0003 24.5005C75.6003 11.1005 62.3003 1.60039 46.7003 0.400391C57.6003 3.20039 65.1003 13.0004 69.4003 19.9004Z" fill="url(#paint0_linear_15_315)"/>
<path d="M38.2003 7.10059C42.9003 11.1006 47.3003 10.2004 59.0003 9.40039C67.1003 8.90039 70.1003 9.80049 71.2003 10.5005C63.8003 4.10049 54.1003 0.300537 43.5003 0.300537C41.967 0.300537 40.467 0.367155 39.0003 0.500488C36.9003 0.900488 33.9003 3.30059 38.2003 7.10059Z" fill="url(#paint1_linear_15_315)"/>
<path d="M28.1003 82.8005C20.6003 79.8005 15.3003 72.5005 15.3003 64.0005C15.3003 61.4005 15.8003 58.9006 16.7003 56.6006C17.1003 55.3006 19.8003 47.7006 27.2003 34.1006C31.0003 26.7006 34.5003 19.2005 35.1003 13.8005C35.2003 13.4005 35.2003 11.6005 35.1003 11.3005C35.0003 10.0005 34.7003 9.00059 34.0003 8.10059C32.6003 5.90059 30.1003 4.40039 27.3003 4.40039C26.0003 4.40039 24.7003 4.70054 23.6003 5.30054C23.6003 5.30054 23.6003 5.26711 23.6003 5.20044C10.1003 12.4004 0.800293 26.6005 0.800293 43.0005C0.800293 61.3005 12.3003 76.8004 28.4003 82.9004C28.3337 82.8337 28.2336 82.8005 28.1003 82.8005Z" fill="url(#paint2_linear_15_315)"/>
<path d="M85.8003 49.1006C85.8003 48.9006 85.8337 48.7339 85.9003 48.6006C85.967 48.0006 86.0336 47.4005 86.1003 46.8005C86.1003 46.7339 86.1003 46.6673 86.1003 46.6006C86.1003 41.3006 81.8003 37.0005 76.5003 37.0005C76.0336 37.0005 75.5669 37.0339 75.1003 37.1006C73.0003 37.3006 67.5003 38.1005 56.0003 41.8005C45.5003 45.2005 35.7003 47.6004 27.8003 47.2004C27.7336 47.2004 27.6336 47.2004 27.5003 47.2004C16.4003 47.2004 7.30029 38.2005 7.30029 27.0005C7.30029 22.4005 8.9003 18.2005 11.5003 14.8005C4.90031 22.3005 0.800293 32.2005 0.800293 43.0005C0.800293 66.6005 20.0003 85.7004 43.5003 85.7004C65.1003 85.7004 82.8003 69.8006 85.8003 49.1006Z" fill="url(#paint3_linear_15_315)"/>
<path d="M100.9 23.1006C100.7 22.3006 101.2 21.7004 102 21.7004H107.6C108.1 21.7004 108.6 22.1005 108.7 22.5005L115.1 46.9004H115.3L125.1 21.7004C125.2 21.4004 125.5 21.0005 126.1 21.0005H127.2C127.8 21.0005 128.1 21.4004 128.2 21.7004L138 46.9004H138.3L144.5 22.5005C144.6 22.1005 145.1 21.7004 145.6 21.7004H151.2C152.1 21.7004 152.6 22.3006 152.3 23.1006L140.8 64.2004C140.6 64.7004 140.2 65.1006 139.7 65.1006H138.7C138.1 65.1006 137.8 64.8004 137.7 64.4004L126.7 36.7004H126.4L115.6 64.4004C115.4 64.8004 115.2 65.1006 114.5 65.1006H113.6C113.1 65.1006 112.6 64.7004 112.5 64.2004L100.9 23.1006Z" fill="#19D9FF"/>
<path d="M188.1 37.6006C188.1 36.8006 188.8 36.2004 189.4 36.2004H191.7C192.4 36.2004 192.7 36.5006 192.9 37.1006L193.9 39.9004C194.9 38.5004 197.6 35.6006 201.9 35.6006C205.3 35.6006 208 36.5005 207.2 38.3005L205.4 42.5005C205.1 43.2005 204.4 43.4006 203.7 43.1006C203.1 42.8006 202.4 42.6006 201.1 42.6006C198 42.6006 196.2 44.5005 195.7 45.5005V63.1006C195.7 64.1006 195 64.4004 194.1 64.4004H189.4C188.8 64.4004 188.1 63.8006 188.1 63.1006V37.6006Z" fill="#19D9FF"/>
<path d="M211.7 23.0005C211.7 22.3005 212.4 21.7004 213.1 21.7004H218C218.8 21.7004 219.4 22.3005 219.4 23.0005V46.9004L229.1 37.1006C229.6 36.6006 230.1 36.2004 230.9 36.2004H236.6C237.8 36.2004 238.2 37.5005 237.5 38.3005L226.3 49.3005L238.1 62.4004C238.8 63.2004 238.4 64.4004 237.2 64.4004H231.2C230.7 64.4004 230.2 64.2004 230 63.9004L219.4 51.2004V63.1006C219.4 63.8006 218.8 64.4004 218 64.4004H213.1C212.4 64.4004 211.7 63.8006 211.7 63.1006V23.0005Z" fill="#19D9FF"/>
<path d="M263 21.0005C269.1 21.0005 273.6 23.0004 277.8 26.7004C278.3 27.2004 278.3 28.0004 277.8 28.4004L274.1 32.3005C273.7 32.8005 273 32.8005 272.6 32.3005C270 30.0005 266.6 28.7004 263.1 28.7004C255.3 28.7004 249.5 35.2004 249.5 42.9004C249.5 50.6004 255.4 57.0005 263.2 57.0005C266.9 57.0005 270 55.6006 272.6 53.6006C273 53.1006 273.7 53.2006 274.1 53.6006L277.9 57.5005C278.4 57.9005 278.2 58.7006 277.8 59.1006C273.7 63.2006 268.4 65.1006 263 65.1006C250.7 65.1006 240.9 55.3006 240.9 43.1006C240.9 30.9006 250.7 21.0005 263 21.0005Z" fill="#19D9FF"/>
<path d="M285.5 22.8005C285.5 22.2005 285.9 21.7004 286.6 21.7004H311.5C312.2 21.7004 312.7 22.2005 312.7 22.8005V27.8005C312.7 28.4005 312.2 29.0005 311.5 29.0005H293.4V39.0005H308.5C309.1 39.0005 309.7 39.6004 309.7 40.2004V45.3005C309.7 45.9005 309.1 46.4004 308.5 46.4004H293.4V57.1006H311.5C312.2 57.1006 312.7 57.7005 312.7 58.3005V63.3005C312.7 63.9005 312.2 64.4004 311.5 64.4004H286.6C285.9 64.4004 285.5 63.9005 285.5 63.3005V22.8005Z" fill="#19D9FF"/>
<path d="M339.6 21.0005C345.7 21.0005 350.2 23.0004 354.3 26.7004C354.9 27.2004 354.9 28.0004 354.4 28.4004L350.7 32.3005C350.2 32.8005 349.6 32.8005 349.1 32.3005C346.6 30.0005 343.2 28.7004 339.7 28.7004C331.9 28.7004 326.1 35.2004 326.1 42.9004C326.1 50.6004 332 57.0005 339.8 57.0005C343.5 57.0005 346.6 55.6006 349.1 53.6006C349.6 53.1006 350.3 53.2006 350.7 53.6006L354.5 57.5005C355 57.9005 354.8 58.7006 354.4 59.1006C350.2 63.2006 345 65.1006 339.6 65.1006C327.3 65.1006 317.5 55.3006 317.5 43.1006C317.5 30.9006 327.3 21.0005 339.6 21.0005Z" fill="#19D9FF"/>
<path fill-rule="evenodd" clip-rule="evenodd" d="M182.3 50.3005C182.3 58.5005 175.7 65.1006 167.6 65.1006C159.4 65.1006 152.8 58.5005 152.8 50.3005C152.8 42.2005 159.4 35.5005 167.6 35.5005C175.7 35.5005 182.3 42.2005 182.3 50.3005ZM176.4 50.3005C176.4 45.4005 172.4 41.5005 167.6 41.5005C167.534 41.5005 167.434 41.5005 167.3 41.5005C167.234 41.5005 167.167 41.5005 167.1 41.5005C167.1 41.5005 167.067 41.5005 167 41.5005C167 41.5005 166.967 41.5005 166.9 41.5005C166.834 41.5005 166.8 41.5005 166.8 41.5005C166.734 41.5005 166.7 41.5005 166.7 41.5005C166.634 41.5005 166.6 41.5005 166.6 41.5005C166.534 41.5672 166.467 41.6006 166.4 41.6006C166.4 41.6006 166.367 41.6006 166.3 41.6006C166.3 41.6006 166.267 41.6006 166.2 41.6006C166.2 41.6006 166.167 41.6006 166.1 41.6006C166.1 41.6006 166.067 41.6006 166 41.6006C165.934 41.6006 165.9 41.6006 165.9 41.6006C165.834 41.6673 165.8 41.7004 165.8 41.7004C165.734 41.7004 165.7 41.7004 165.7 41.7004C165.634 41.7004 165.6 41.7004 165.6 41.7004C165.534 41.7004 165.467 41.7004 165.4 41.7004C165.4 41.7671 165.4 41.8005 165.4 41.8005C165.334 41.8005 165.267 41.8005 165.2 41.8005C165.134 41.8005 165.067 41.8337 165 41.9004C165 41.9004 164.967 41.9004 164.9 41.9004C164.9 41.9004 164.867 41.9004 164.8 41.9004C164.8 41.9004 164.767 41.9338 164.7 42.0005C164.7 42.0005 164.667 42.0005 164.6 42.0005C164.6 42.0005 164.567 42.0005 164.5 42.0005C164.5 42.0005 164.467 42.0339 164.4 42.1006C164.4 42.1006 164.367 42.1006 164.3 42.1006C164.3 42.1006 164.267 42.1338 164.2 42.2004C164.2 42.2004 164.167 42.2004 164.1 42.2004C164.1 42.2004 164.067 42.2004 164 42.2004C164 42.2671 163.967 42.3005 163.9 42.3005C163.9 42.3005 163.867 42.3005 163.8 42.3005C163.8 42.3005 163.767 42.3337 163.7 42.4004C163.7 42.4004 163.667 42.4004 163.6 42.4004C163.6 42.4004 163.6 42.4338 163.6 42.5005C163.534 42.5005 163.467 42.5005 163.4 42.5005C163.4 42.5005 163.4 42.5339 163.4 42.6006C163.334 42.6006 163.267 42.6006 163.2 42.6006C163.2 42.6006 163.2 42.6338 163.2 42.7004C163.134 42.7004 163.067 42.7004 163 42.7004C163 42.7671 163 42.8005 163 42.8005C162.934 42.8005 162.867 42.8337 162.8 42.9004C162.734 42.9004 162.7 42.9338 162.7 43.0005C162.7 43.0005 162.667 43.0005 162.6 43.0005C162.6 43.0005 162.567 43.0339 162.5 43.1006C162.434 43.1673 162.367 43.2004 162.3 43.2004C162.234 43.2671 162.167 43.3337 162.1 43.4004C162.034 43.4004 162 43.4338 162 43.5005C161.934 43.5672 161.867 43.6006 161.8 43.6006C161.734 43.6673 161.667 43.7339 161.6 43.8005C161.6 43.8005 161.567 43.8337 161.5 43.9004C161.434 43.9671 161.367 44.0339 161.3 44.1006C161.234 44.1673 161.134 44.2671 161 44.4004C159.6 45.9004 158.7 48.0005 158.7 50.3005V58.0005L160.8 56.0005C160.867 56.0672 160.9 56.1006 160.9 56.1006C160.967 56.1006 161 56.1338 161 56.2004C161 56.2004 161.034 56.2339 161.1 56.3005C161.167 56.3672 161.234 56.4338 161.3 56.5005C161.367 56.5672 161.4 56.6338 161.4 56.7004C161.734 56.9671 162.034 57.2004 162.3 57.4004C162.3 57.4004 162.334 57.4004 162.4 57.4004C162.4 57.4671 162.434 57.5005 162.5 57.5005C162.5 57.5672 162.534 57.6006 162.6 57.6006C162.6 57.6006 162.634 57.6338 162.7 57.7004C162.767 57.7671 162.834 57.8005 162.9 57.8005C162.967 57.8672 163.034 57.9004 163.1 57.9004C163.3 58.0337 163.534 58.1672 163.8 58.3005C163.867 58.3005 163.934 58.3337 164 58.4004C164.067 58.4004 164.134 58.4338 164.2 58.5005C164.267 58.5005 164.334 58.5005 164.4 58.5005C164.4 58.5672 164.434 58.6006 164.5 58.6006C164.5 58.6006 164.534 58.6006 164.6 58.6006C164.667 58.6006 164.7 58.6338 164.7 58.7004C164.767 58.7004 164.8 58.7004 164.8 58.7004C164.867 58.7004 164.9 58.7004 164.9 58.7004C164.967 58.7671 165.034 58.8005 165.1 58.8005C165.167 58.8005 165.234 58.8005 165.3 58.8005C165.3 58.8672 165.334 58.9004 165.4 58.9004C165.467 58.9004 165.534 58.9004 165.6 58.9004C165.667 58.9004 165.734 58.9338 165.8 59.0005C165.867 59.0005 165.9 59.0005 165.9 59.0005C165.967 59.0005 166 59.0005 166 59.0005C166.067 59.0005 166.1 59.0005 166.1 59.0005C166.167 59.0005 166.234 59.0005 166.3 59.0005C166.3 59.0005 166.334 59.0339 166.4 59.1006C166.4 59.1006 166.434 59.1006 166.5 59.1006C166.567 59.1006 166.6 59.1006 166.6 59.1006C166.667 59.1006 166.734 59.1006 166.8 59.1006C166.867 59.1006 166.934 59.1006 167 59.1006C167 59.1006 167.034 59.1006 167.1 59.1006C167.167 59.1006 167.2 59.1006 167.2 59.1006C167.267 59.1006 167.3 59.1006 167.3 59.1006C167.367 59.1006 167.467 59.1006 167.6 59.1006C172.4 59.1006 176.4 55.2005 176.4 50.3005Z" fill="#19D9FF"/>
<path d="M165 50.3005C165 50.9005 164.5 51.4004 163.9 51.4004C163.4 51.4004 162.9 50.9005 162.9 50.3005C162.9 49.7005 163.4 49.3005 163.9 49.3005C164.5 49.3005 165 49.7005 165 50.3005Z" fill="#634CE7"/>
<path d="M168.6 50.3005C168.6 50.9005 168.2 51.4004 167.6 51.4004C167 51.4004 166.5 50.9005 166.5 50.3005C166.5 49.7005 167 49.3005 167.6 49.3005C168.2 49.3005 168.6 49.7005 168.6 50.3005Z" fill="#634CE7"/>
<path d="M172.3 50.3005C172.3 50.9005 171.8 51.4004 171.2 51.4004C170.6 51.4004 170.1 50.9005 170.1 50.3005C170.1 49.7005 170.6 49.3005 171.2 49.3005C171.8 49.3005 172.3 49.7005 172.3 50.3005Z" fill="#634CE7"/>
<defs>
<linearGradient id="paint0_linear_15_315" x1="83.6003" y1="33.8006" x2="46.7003" y2="33.8006" gradientUnits="userSpaceOnUse">
<stop offset="0.1" stop-color="#634CE7"/>
<stop offset="1" stop-color="#19D9FF"/>
</linearGradient>
<linearGradient id="paint1_linear_15_315" x1="71.2003" y1="10.5005" x2="36.0003" y2="10.5005" gradientUnits="userSpaceOnUse">
<stop stop-color="#19D9FF"/>
<stop offset="1" stop-color="#634CE7"/>
</linearGradient>
<linearGradient id="paint2_linear_15_315" x1="35.2003" y1="82.9004" x2="0.800293" y2="82.9004" gradientUnits="userSpaceOnUse">
<stop stop-color="#634CE7"/>
<stop offset="1" stop-color="#19D9FF"/>
</linearGradient>
<linearGradient id="paint3_linear_15_315" x1="86.1003" y1="85.7004" x2="0.800293" y2="85.7004" gradientUnits="userSpaceOnUse">
<stop offset="0.1" stop-color="#634CE7"/>
<stop offset="1" stop-color="#19D9FF"/>
</linearGradient>
</defs>
</svg>
